<?xml version="1.0" standalone="no"?>
<!DOCTYPE svg PUBLIC "-//W3C//DTD SVG 20010904//EN"
 "http://www.w3.org/TR/2001/REC-SVG-20010904/DTD/svg10.dtd">
<svg version="1.0" xmlns="http://www.w3.org/2000/svg"
 width="577.000000pt" height="433.000000pt" viewBox="0 0 577.000000 433.000000"
 preserveAspectRatio="xMidYMid meet">

<g transform="translate(0.000000,433.000000) scale(0.100000,-0.100000)"
fill="#000000" stroke="none">
<path d="M2860 3469 c-36 -4 -85 -13 -110 -19 -25 -6 -56 -13 -70 -15 -43 -5
-110 -25 -110 -33 0 -4 -10 -8 -22 -9 -31 -2 -98 -26 -98 -35 0 -5 -5 -8 -11
-8 -25 0 -80 -33 -75 -46 3 -8 0 -11 -8 -8 -7 3 -25 0 -40 -5 -26 -10 -26 -11
-10 -36 9 -14 14 -28 11 -31 -3 -3 -8 4 -12 16 -4 13 -12 19 -21 16 -10 -4
-13 -2 -8 7 4 6 -2 3 -14 -7 -27 -24 -27 -24 2 -21 16 2 23 -1 20 -9 -5 -14
23 -15 44 -2 6 4 16 4 22 1 5 -3 15 3 22 15 7 11 19 20 26 20 23 0 102 40 102
51 0 8 4 8 14 0 12 -10 19 -9 34 6 10 10 37 28 60 39 35 19 43 20 53 8 15 -18
33 -18 49 1 11 13 10 15 -6 9 -15 -4 -16 -4 -5 4 9 7 23 7 38 1 31 -12 36 -11
28 1 -8 13 16 13 49 1 18 -7 28 -6 36 5 8 8 31 14 59 14 25 0 58 7 73 14 32
17 84 27 93 18 3 -4 17 -7 30 -8 17 0 22 3 18 15 -3 10 3 8 15 -6 20 -23 62
-32 62 -13 0 14 21 12 39 -4 18 -15 118 -39 131 -31 15 9 70 -7 63 -19 -4 -7
-1 -6 8 1 13 10 19 10 34 -1 20 -14 49 -11 39 5 -3 5 -10 6 -16 3 -6 -4 -14
-1 -18 6 -5 7 -23 13 -41 12 -18 0 -28 3 -21 7 12 7 -74 37 -96 33 -8 -2 -19
1 -26 7 -6 5 -33 11 -59 12 -26 2 -47 6 -47 9 0 3 -42 7 -92 9 -51 1 -111 4
-133 5 -22 2 -69 0 -105 -5z m465 -59 c3 -6 -4 -10 -17 -10 -18 0 -20 2 -8 10
19 12 18 12 25 0z m55 0 c8 -5 11 -10 5 -10 -5 0 -17 5 -25 10 -8 5 -10 10 -5
10 6 0 17 -5 25 -10z m-903 -94 c0 -8 -6 -12 -15 -8 -10 3 -13 1 -8 -6 10 -17
-5 -14 -29 4 l-20 16 20 -6 c11 -3 27 -1 35 4 8 5 15 10 16 10 0 0 1 -6 1 -14z
m-72 -24 c-3 -3 -11 0 -18 7 -9 10 -8 11 6 5 10 -3 15 -9 12 -12z"/>
<path d="M3545 3343 c20 -15 20 -15 -1 -11 -12 3 -21 0 -21 -7 0 -10 7 -10 29
-3 31 11 30 23 -4 31 -23 6 -23 6 -3 -10z"/>
<path d="M3600 3323 c0 -5 -12 -14 -27 -20 l-28 -12 28 6 c16 3 27 1 27 -6 0
-6 9 -11 20 -11 26 0 72 -29 64 -41 -3 -5 1 -6 9 -3 9 3 22 -4 31 -17 13 -19
18 -20 31 -9 13 11 14 10 8 -5 -5 -14 -3 -17 10 -12 9 3 17 2 17 -3 0 -6 -4
-10 -9 -10 -13 0 -21 -39 -9 -47 7 -3 8 -1 4 5 -9 15 6 16 21 1 7 -7 14 -6 24
3 24 22 46 17 63 -16 15 -28 15 -29 0 -8 -19 25 -56 31 -49 7 16 -50 14 -48
32 -34 13 11 12 5 -5 -23 -19 -35 -20 -38 -4 -38 34 0 60 -52 31 -62 -8 -3 -6
-10 5 -21 10 -9 21 -15 24 -13 4 2 7 -22 6 -55 0 -46 -5 -62 -20 -74 -41 -32
-79 -47 -135 -52 -81 -8 -168 21 -381 128 -213 106 -292 139 -430 176 -97 26
-115 28 -303 27 -189 0 -205 -2 -289 -27 -174 -54 -300 -125 -422 -239 -249
-234 -336 -575 -244 -962 10 -43 21 -80 23 -82 2 -2 5 46 6 108 1 64 10 148
20 193 18 80 87 257 103 263 4 2 8 8 8 14 0 13 91 137 120 163 20 18 21 18 34
-1 13 -16 12 -21 -1 -36 -9 -10 -19 -15 -23 -13 -4 3 -13 -2 -20 -10 -11 -13
-10 -14 6 -9 19 7 19 7 0 -14 -17 -20 -20 -20 -31 -5 -11 15 -13 15 -19 -5 -5
-13 -12 -20 -19 -16 -7 4 -8 3 -4 -1 14 -16 36 -14 30 3 -4 15 -3 15 6 2 7
-11 6 -20 -5 -35 -8 -11 -26 -43 -41 -72 -15 -29 -31 -49 -36 -46 -6 3 -7 1
-3 -5 4 -7 -4 -43 -18 -82 -81 -223 -70 -489 28 -702 54 -118 142 -224 290
-347 99 -82 152 -120 142 -100 -4 7 0 5 8 -5 9 -11 16 -17 16 -13 0 4 13 1 29
-7 22 -12 31 -12 42 -3 11 10 11 9 0 -6 -19 -24 -10 -30 35 -21 36 7 37 8 14
14 -16 4 -24 12 -22 23 3 19 -18 23 -35 6 -7 -7 -17 -8 -28 -2 -16 9 -16 10
-1 16 11 5 15 3 10 -4 -4 -7 -1 -10 7 -7 8 3 13 13 11 22 -2 13 3 17 20 14 19
-2 24 2 26 26 3 25 1 28 -17 23 -24 -6 -25 -3 -10 25 8 15 8 19 0 14 -6 -4
-11 -3 -11 3 0 5 6 11 13 14 9 3 8 13 -5 41 -22 45 -22 46 -2 46 14 0 14 3 4
15 -24 29 -3 14 46 -31 106 -100 185 -158 292 -213 37 -19 25 4 -13 25 -19 10
-35 23 -35 28 0 6 5 5 11 -1 6 -6 18 -9 25 -6 8 3 14 0 14 -7 0 -6 5 -8 10 -5
14 9 2 46 -20 65 -16 14 -17 20 -5 64 7 26 17 51 22 55 6 3 13 28 17 54 4 27
14 51 22 54 8 3 14 17 14 32 0 20 -2 23 -10 11 -7 -11 -10 -6 -10 21 0 19 -5
40 -11 46 -9 9 -5 14 15 19 23 5 38 24 19 24 -14 0 -140 174 -167 230 -14 30
-21 47 -14 37 32 -46 46 -58 54 -46 4 7 2 15 -4 17 -7 2 -9 8 -6 14 3 5 22
-14 42 -44 64 -96 278 -290 255 -232 -4 11 -3 15 5 10 6 -3 14 -2 17 4 5 8 12
7 23 -2 14 -10 15 -10 5 2 -15 16 -17 34 -4 26 5 -3 -6 25 -24 62 -64 128 -80
247 -49 366 33 130 126 241 253 304 68 33 83 37 175 40 72 3 118 0 156 -12 52
-14 54 -14 30 2 -13 9 -81 62 -150 117 -214 170 -272 211 -368 258 -82 40 -90
46 -75 58 14 12 15 12 9 0 -7 -10 -3 -12 15 -6 47 15 54 15 25 1 l-30 -14 35
-17 c30 -16 32 -16 20 -2 -19 24 -7 21 44 -9 25 -14 49 -23 54 -20 5 3 20 2
33 -3 l23 -10 -22 -7 c-13 -3 -20 -10 -17 -15 3 -5 17 -1 32 9 25 16 26 16 19
-3 -7 -20 -7 -20 8 -1 8 11 15 24 15 30 0 5 3 7 6 4 3 -4 0 -16 -6 -29 -10
-18 -9 -23 4 -31 27 -15 19 -28 -10 -17 -37 13 -41 4 -5 -11 48 -19 67 -10 63
30 -8 84 -8 85 16 88 27 4 74 -26 146 -92 139 -127 198 -83 86 63 -59 77 -64
101 -20 101 83 0 247 -118 354 -255 25 -33 54 -68 62 -77 15 -15 14 -16 -6
-11 -12 3 -24 12 -27 20 -4 11 -8 11 -13 3 -4 -6 -25 -13 -46 -15 -48 -5 -66
-8 -80 -18 -7 -4 -15 0 -18 9 -5 14 -11 12 -32 -12 -15 -16 -23 -22 -19 -14 4
10 2 9 -8 -2 -13 -16 -15 -16 -32 0 -13 12 -15 13 -9 2 13 -24 86 -100 97
-100 5 0 17 10 27 23 l18 22 29 -23 c73 -58 127 -82 184 -82 49 0 60 4 96 35
42 36 79 98 68 115 -3 6 -1 10 6 10 7 0 10 3 6 6 -3 4 3 24 13 45 15 29 20 59
20 122 0 144 -62 316 -163 453 -53 72 -156 176 -167 169 -4 -3 -13 2 -20 10
-7 8 -16 15 -21 15 -14 0 -48 33 -43 42 3 4 -3 5 -12 1 -13 -5 -15 -3 -9 8 6
11 5 12 -6 2 -7 -7 -18 -13 -23 -13 -6 0 -4 5 4 11 11 8 12 12 2 16 -7 2 -19
11 -26 19 -11 11 -16 11 -19 1 -4 -9 -6 -9 -6 1 -1 6 -11 12 -23 12 -19 0 -20
2 -8 10 14 9 7 14 -14 11 -4 -1 -14 4 -22 10 -8 6 -14 7 -14 2z m25 -31 c-3
-3 -11 0 -18 7 -9 10 -8 11 6 5 10 -3 15 -9 12 -12z m95 -42 c0 -5 -7 -7 -15
-4 -8 4 -15 8 -15 10 0 2 7 4 15 4 8 0 15 -4 15 -10z m92 -77 c-6 -2 -10 -9
-6 -14 3 -5 1 -9 -5 -9 -5 0 -12 4 -15 9 -6 9 10 19 29 19 6 0 4 -2 -3 -5z
m137 -172 c0 -9 3 -34 6 -56 4 -39 4 -39 -4 -6 -5 18 -13 36 -18 40 -13 10
-11 38 3 38 7 0 13 -7 13 -16z m-8 -138 c-8 -15 -10 -11 -9 15 1 26 3 30 10
18 5 -10 5 -23 -1 -33z m-527 -34 c31 -24 32 -62 3 -67 -47 -9 -103 44 -82 77
10 18 50 12 79 -10z m-190 -94 c6 -11 16 -24 21 -28 6 -5 4 -7 -5 -6 -8 1 -23
-1 -32 -5 -27 -12 -45 -1 -50 32 -4 27 -2 29 25 28 19 -1 34 -9 41 -21z m-80
-48 c7 -6 4 -7 -7 -3 -14 5 -16 1 -12 -22 5 -24 4 -24 -4 -5 -5 11 -7 32 -4
44 5 16 8 19 11 9 3 -8 10 -19 16 -23z m-213 10 c-7 -7 -18 -7 -33 0 -20 9
-20 10 10 10 22 0 29 -4 23 -10z m329 -17 c-8 -5 -19 -10 -25 -10 -5 0 -3 5 5
10 8 5 20 10 25 10 6 0 3 -5 -5 -10z m-100 -20 c-9 -6 -10 -10 -3 -10 6 0 14
4 18 9 3 6 14 9 25 8 22 -1 16 -17 -8 -18 -14 0 -13 -2 3 -9 28 -12 2 -12 -30
0 -23 9 -25 13 -15 25 7 9 15 13 19 10 3 -3 -1 -10 -9 -15z m275 -42 c5 4 5 1
1 -6 -6 -10 -11 -10 -22 -1 -8 6 -14 14 -14 16 0 3 6 0 13 -6 8 -6 18 -7 22
-3z m-1378 -52 c0 -8 -6 -12 -15 -9 -11 5 -11 7 0 14 7 5 13 9 14 9 0 0 1 -6
1 -14z m1463 -10 c0 -2 -7 -7 -16 -10 -8 -3 -12 -2 -9 4 6 10 25 14 25 6z
m-1467 -26 c3 6 5 6 3 -2 -4 -21 -21 -19 -35 4 -14 23 -13 23 7 5 13 -12 22
-14 25 -7z m1957 -15 c0 -8 -9 -15 -20 -15 -11 0 -20 7 -20 15 0 8 9 15 20 15
11 0 20 -7 20 -15z m41 -86 c16 -17 29 -32 29 -34 0 -2 -18 -2 -40 -2 -36 2
-40 5 -40 28 0 24 7 39 18 39 2 0 17 -14 33 -31z m-285 -70 c8 -14 -18 -31
-30 -19 -9 9 0 30 14 30 5 0 12 -5 16 -11z m-85 -26 c13 -16 12 -17 -3 -4 -17
13 -22 21 -14 21 2 0 10 -8 17 -17z m-681 -817 c0 -2 -7 -9 -15 -16 -13 -11
-14 -10 -9 4 5 14 24 23 24 12z m-666 -162 c3 -8 2 -12 -4 -9 -6 3 -10 10 -10
16 0 14 7 11 14 -7z m-19 -24 c10 -11 13 -20 7 -20 -6 0 -16 9 -22 20 -6 11
-9 20 -7 20 2 0 12 -9 22 -20z m54 -23 c12 -15 12 -17 -3 -11 -9 3 -16 13 -16
22 0 8 1 13 3 11 1 -2 9 -12 16 -22z"/>
<path d="M2220 3218 c0 -5 -6 -6 -12 -2 -7 4 -10 4 -6 -1 9 -10 -11 -37 -22
-30 -4 3 -11 -2 -14 -11 -3 -8 -2 -12 3 -9 5 3 12 1 16 -5 3 -5 16 -10 28 -9
l22 0 -22 9 c-29 12 -30 24 -2 17 16 -4 18 -3 9 8 -8 9 -6 14 5 19 10 4 14 2
9 -5 -4 -7 1 -10 11 -7 28 5 27 36 -1 36 -13 0 -24 -5 -24 -10z"/>
<path d="M2133 3155 c-8 -9 -9 -16 -3 -20 6 -3 10 0 10 7 0 9 3 9 10 -2 7 -12
12 -12 22 -2 9 9 9 12 -4 12 -9 0 -18 4 -20 9 -1 5 -9 3 -15 -4z"/>
<path d="M2088 3119 c-10 -10 -18 -24 -18 -30 0 -5 -4 -8 -8 -5 -5 3 -23 -10
-40 -29 -16 -19 -27 -35 -22 -35 5 0 17 -3 27 -6 15 -5 16 -4 3 5 -12 9 -13
13 -2 20 8 4 13 11 13 15 -2 16 0 18 13 7 10 -8 16 -9 21 -1 3 5 3 10 0 10 -3
0 6 12 20 26 14 14 23 30 20 35 -7 11 -6 12 -27 -12z"/>
<path d="M1990 2991 c0 -7 -4 -9 -10 -6 -6 4 -7 -1 -3 -11 6 -15 7 -15 15 1 6
9 7 19 4 22 -3 4 -6 1 -6 -6z"/>
<path d="M1955 2930 c3 -5 8 -10 11 -10 2 0 4 5 4 10 0 6 -5 10 -11 10 -5 0
-7 -4 -4 -10z"/>
<path d="M3051 2646 c10 -9 69 -36 69 -32 0 6 -55 36 -66 36 -4 0 -5 -2 -3 -4z"/>
<path d="M1996 2494 c-9 -23 -2 -28 13 -10 7 8 8 17 3 20 -6 3 -13 -1 -16 -10z"/>
<path d="M3735 2411 c-3 -6 3 -9 14 -8 11 0 17 5 15 9 -7 11 -22 10 -29 -1z"/>
<path d="M3524 2367 c3 -10 6 -30 6 -43 0 -13 5 -24 10 -24 16 0 12 44 -6 66
-14 17 -15 17 -10 1z"/>
<path d="M3709 2198 c46 -21 176 -36 208 -24 15 6 13 10 -15 21 -18 8 -40 11
-49 8 -9 -4 -14 -2 -10 3 7 11 -95 10 -113 -1 -5 -3 -10 -1 -10 4 0 6 -12 11
-27 10 -26 -1 -24 -2 16 -21z"/>
<path d="M2683 1680 c-1 -16 1 -17 12 -7 7 6 11 15 8 20 -8 13 -19 7 -20 -13z"/>
<path d="M2407 1216 c-4 -10 -1 -13 9 -9 8 3 14 -1 14 -11 0 -9 5 -16 10 -16
13 0 12 11 -4 33 -16 21 -22 21 -29 3z"/>
</g>
</svg>
